<svg id="svg" xmlns="http://www.w3.org/2000/svg" xmlns:xlink="http://www.w3.org/1999/xlink" width="500" height="528.9692148045659" viewBox="0, 0, 500,528.9692148045659"><g id="svgg"><path id="path0" d="M268.852 0.045 C 256.800 0.524,249.231 3.009,246.192 7.484 L 246.018 7.740 246.325 9.132 C 248.395 18.514,249.740 26.244,249.789 29.034 C 249.798 29.595,249.371 30.929,248.912 31.768 C 248.716 32.127,248.718 32.141,248.987 32.208 C 249.576 32.357,249.812 31.809,249.854 30.201 C 249.873 29.452,249.899 29.180,250.000 28.645 C 250.122 28.005,250.214 27.349,250.305 26.461 C 250.379 25.743,250.406 22.758,250.351 21.371 C 250.103 15.149,250.095 10.271,250.331 8.997 C 250.383 8.715,251.389 7.775,252.329 7.129 C 254.870 5.382,258.318 4.394,263.274 3.991 C 264.454 3.895,269.094 3.881,270.495 3.969 C 275.704 4.296,281.750 5.107,287.141 6.202 L 287.422 6.259 287.184 6.265 C 285.756 6.296,280.416 6.610,277.521 6.833 C 269.380 7.460,263.542 8.252,257.455 9.556 C 256.398 9.782,254.227 10.287,254.202 10.312 C 254.185 10.328,254.525 29.850,254.565 31.207 L 254.593 32.126 281.222 32.126 L 307.852 32.126 307.852 31.968 C 307.852 31.773,307.417 26.703,307.071 22.873 C 305.930 10.232,305.162 3.902,304.742 3.677 C 304.539 3.568,301.163 2.778,299.269 2.395 C 292.966 1.123,286.974 0.442,278.926 0.082 C 277.630 0.024,270.079 -0.004,268.852 0.045 M247.149 37.779 C 246.587 39.872,245.892 44.230,245.657 47.129 C 245.537 48.612,245.499 49.693,245.499 51.712 C 245.499 53.584,245.523 54.432,245.633 56.468 C 245.657 56.908,245.715 58.241,245.762 59.430 C 245.976 64.861,246.022 67.172,246.022 72.550 L 246.022 77.108 247.044 79.381 C 251.080 88.353,251.348 89.007,251.665 90.633 C 256.631 116.122,249.908 140.527,231.551 163.641 C 231.151 164.144,230.426 165.059,229.940 165.673 C 210.618 190.065,200.836 212.545,201.293 231.509 L 201.323 232.756 201.005 232.729 C 200.324 232.671,198.411 232.620,196.947 232.620 C 186.385 232.620,175.617 234.904,164.724 239.455 C 164.440 239.574,164.199 239.663,164.189 239.653 C 164.161 239.625,166.162 237.620,166.789 237.048 C 173.087 231.307,182.979 225.076,197.346 217.798 C 198.695 217.115,199.799 216.545,199.800 216.532 C 199.804 216.444,195.264 215.317,192.991 214.842 C 186.930 213.575,180.132 213.008,175.393 213.374 C 169.523 213.828,164.892 215.030,160.442 217.253 C 159.785 217.581,159.792 217.555,160.526 216.922 C 163.155 214.653,171.200 209.641,184.851 201.768 C 185.178 201.580,185.431 201.413,185.413 201.397 C 185.225 201.225,180.335 200.003,177.999 199.544 C 166.081 197.201,155.380 198.618,147.073 203.641 C 146.859 203.770,146.714 203.839,146.751 203.795 C 151.049 198.613,159.253 192.948,170.738 187.232 C 171.768 186.720,172.595 186.285,172.575 186.266 C 172.481 186.176,169.903 185.401,168.475 185.034 C 161.815 183.320,155.151 183.120,149.191 184.457 C 138.966 186.750,130.655 192.916,127.052 200.882 C 125.919 203.387,124.816 207.468,124.781 209.282 L 124.778 209.421 124.695 209.249 C 124.649 209.153,124.376 208.541,124.087 207.887 C 119.816 198.205,114.960 191.080,109.594 186.620 C 109.075 186.189,109.170 186.169,108.755 186.797 C 106.478 190.242,105.195 196.038,104.898 204.211 C 104.798 206.969,104.811 212.325,104.920 213.270 C 104.944 213.481,104.936 213.470,104.579 212.831 C 100.647 205.808,93.871 201.844,84.162 200.886 C 82.384 200.711,81.799 200.687,79.190 200.687 C 66.600 200.687,57.795 204.192,52.479 211.320 C 52.039 211.910,51.655 212.470,51.676 212.490 C 51.684 212.498,52.362 212.485,53.182 212.461 C 65.568 212.106,75.681 213.557,81.575 216.535 C 82.256 216.879,83.463 217.572,83.434 217.601 C 83.427 217.608,83.101 217.591,82.711 217.564 C 79.276 217.322,74.546 217.647,70.920 218.374 C 62.548 220.052,54.415 224.447,47.864 230.834 L 47.367 231.319 48.945 231.320 C 63.590 231.335,74.342 232.866,78.563 235.536 L 78.801 235.686 78.455 235.688 C 64.371 235.740,52.084 240.553,42.567 249.745 C 41.692 250.590,40.365 251.942,40.389 251.964 C 40.398 251.972,40.629 251.943,40.903 251.899 C 57.418 249.224,71.329 250.738,81.518 256.318 C 82.115 256.646,83.407 257.407,83.391 257.422 C 83.385 257.428,82.914 257.386,82.344 257.329 C 72.499 256.334,62.986 257.862,54.609 261.783 C 47.719 265.008,42.422 268.773,38.978 272.894 C 38.345 273.651,37.273 275.137,37.323 275.187 C 37.335 275.200,37.868 275.151,38.508 275.079 C 60.756 272.582,81.253 276.282,98.079 285.831 C 109.845 292.509,119.405 301.291,126.711 312.132 L 127.454 313.235 126.886 313.468 C 102.156 323.632,91.807 356.566,96.289 410.844 C 96.333 411.379,96.362 411.824,96.354 411.832 C 96.346 411.841,95.739 411.700,95.007 411.520 C 77.783 407.291,63.620 408.949,52.253 416.523 C 41.107 423.950,35.440 434.111,34.413 448.504 C 34.281 450.362,34.317 454.566,34.488 457.034 C 34.527 457.600,34.548 458.073,34.535 458.085 C 34.523 458.098,32.755 457.632,30.606 457.049 C 28.457 456.467,26.145 455.851,25.467 455.681 C 23.902 455.288,22.613 454.916,21.279 454.473 C 13.401 451.857,5.603 451.937,0.794 454.683 C -0.092 455.189,0.001 455.106,0.000 455.388 C -0.001 456.727,0.639 459.405,1.433 461.385 C 5.457 471.416,18.635 482.065,39.720 492.326 L 41.408 493.147 32.194 493.170 L 22.981 493.193 22.224 493.310 C 16.205 494.245,12.862 496.228,11.760 499.518 L 11.625 499.922 11.960 500.534 C 21.045 517.148,43.578 526.079,79.665 527.368 C 86.354 527.607,92.526 527.559,98.906 527.217 C 139.434 525.048,173.394 512.624,200.930 489.892 L 201.303 489.584 201.327 491.344 C 201.564 508.410,211.439 518.520,231.192 521.918 C 234.525 522.491,250.774 522.906,289.842 523.414 C 292.809 523.453,294.921 523.497,295.016 523.523 C 295.766 523.725,296.175 524.649,296.179 526.153 C 296.182 527.631,297.012 528.168,298.531 527.673 L 298.959 527.534 299.893 527.582 C 308.015 527.998,326.908 527.999,354.700 527.585 C 356.341 527.560,358.646 527.522,359.824 527.499 C 368.641 527.328,378.370 527.360,385.982 527.586 C 393.136 527.799,407.669 528.516,413.157 528.927 C 413.466 528.950,413.870 528.969,414.054 528.969 L 414.389 528.969 414.389 522.143 L 414.389 515.317 413.860 515.057 C 410.096 513.208,401.861 510.805,389.290 507.886 C 376.567 504.932,369.130 501.386,365.247 496.420 L 365.034 496.148 365.214 495.058 C 366.377 488.017,366.535 477.825,365.680 464.826 C 365.336 459.593,364.674 452.294,364.105 447.466 C 362.910 437.318,362.418 427.955,362.761 421.891 C 363.108 415.755,363.961 411.105,365.313 407.990 C 366.222 405.894,368.866 402.870,372.514 399.754 C 375.785 396.960,379.773 393.039,381.355 391.061 C 382.247 389.945,381.977 390.524,384.207 384.945 C 386.709 378.688,387.738 375.856,390.414 367.866 C 391.604 364.313,391.808 363.731,392.201 362.785 C 394.802 356.523,399.175 351.241,405.201 347.082 C 406.497 346.188,415.381 340.657,423.145 335.911 L 424.658 334.986 426.323 334.396 C 434.776 331.398,438.674 329.650,442.256 327.249 C 445.023 325.395,447.327 323.280,449.079 320.989 L 449.329 320.661 450.592 320.032 C 454.579 318.046,456.328 317.554,456.004 318.509 C 455.913 318.776,455.817 318.772,457.090 318.554 C 469.623 316.407,479.800 310.899,487.527 302.080 C 495.095 293.442,499.137 283.396,499.915 271.295 C 499.989 270.140,500.015 266.952,499.961 265.674 C 499.934 265.032,499.892 263.991,499.869 263.360 C 499.347 249.277,493.672 236.639,483.480 226.862 C 474.287 218.043,463.647 213.484,449.347 212.236 C 428.308 210.400,410.645 218.411,397.786 235.623 C 386.739 250.411,383.358 266.861,387.803 284.193 C 387.872 284.462,387.928 284.701,387.928 284.723 C 387.928 284.850,385.555 284.670,384.145 284.436 C 381.572 284.008,379.416 283.293,376.621 281.941 C 373.578 280.468,371.361 279.622,369.682 279.292 C 369.480 279.252,369.310 279.215,369.304 279.210 C 369.299 279.205,369.352 278.648,369.424 277.972 C 369.680 275.538,370.349 269.019,371.476 257.956 C 374.188 231.352,375.618 217.643,379.088 184.971 C 381.083 166.189,381.095 166.089,381.940 160.242 C 382.364 157.306,382.802 154.785,382.821 155.167 C 382.824 155.219,382.844 155.272,382.865 155.285 C 382.887 155.299,382.897 155.237,382.888 155.147 C 382.879 155.058,382.863 154.713,382.851 154.380 C 382.706 150.207,380.535 147.471,376.852 146.817 L 376.694 146.789 376.476 147.688 C 373.322 160.700,370.653 180.857,368.212 210.092 C 365.811 238.855,363.414 258.365,360.769 270.689 C 360.210 273.295,359.409 276.591,359.335 276.591 C 359.262 276.591,358.357 276.103,357.884 275.809 C 355.031 274.034,353.262 271.514,352.759 268.506 C 352.619 267.667,352.597 267.320,352.573 265.587 C 352.538 263.025,352.593 262.361,353.013 260.204 C 353.277 258.849,353.424 257.937,353.588 256.637 L 353.702 255.729 353.717 238.456 C 353.728 226.339,353.718 220.956,353.685 220.425 C 353.252 213.451,350.280 205.482,344.593 196.044 C 338.878 186.559,331.050 175.707,320.997 163.330 C 318.537 160.302,317.369 158.773,315.727 156.434 C 301.817 136.615,297.074 114.636,301.498 90.501 C 301.757 89.088,302.100 88.171,302.960 86.587 C 303.478 85.634,304.009 84.585,304.330 83.881 C 304.443 83.631,304.754 83.087,305.019 82.670 C 306.371 80.552,307.357 78.721,307.696 77.700 L 307.852 77.231 307.852 57.424 L 307.852 37.617 281.023 37.617 L 254.194 37.617 254.195 38.038 C 254.195 38.270,254.282 46.578,254.387 56.500 L 254.579 74.540 254.859 75.012 C 261.629 86.417,263.587 103.649,260.720 126.578 C 259.819 133.776,259.284 136.301,257.802 140.333 C 254.139 150.302,245.815 162.451,234.047 175.004 C 220.034 189.952,212.085 203.211,210.117 214.917 C 209.488 218.661,209.479 219.713,209.962 235.148 C 210.033 237.431,210.154 241.069,210.229 243.233 C 210.656 255.442,210.128 263.868,208.449 271.662 C 208.129 273.146,207.261 276.498,207.209 276.447 C 207.203 276.441,207.138 273.226,207.066 269.303 C 206.412 233.735,205.992 216.089,205.721 212.837 C 205.675 212.287,205.677 212.260,205.810 211.583 C 207.946 200.773,216.020 188.101,230.630 172.626 C 244.579 157.852,253.282 143.762,255.681 132.069 C 256.384 128.642,257.333 120.954,257.674 115.920 C 258.292 106.796,257.781 96.888,256.267 88.649 C 255.971 87.038,255.245 85.488,253.189 82.075 C 251.203 78.779,250.552 76.867,250.175 73.223 C 249.888 70.448,250.067 64.159,250.649 56.512 C 250.940 52.689,250.703 48.126,250.040 44.773 C 249.473 41.909,248.666 39.819,247.304 37.692 C 247.232 37.580,247.198 37.599,247.149 37.779 M398.197 128.932 C 397.139 129.016,396.417 129.151,397.030 129.151 C 397.157 129.151,397.224 129.170,397.224 129.205 C 397.223 129.235,397.137 130.805,397.032 132.696 C 396.827 136.380,396.832 136.183,396.952 136.119 C 397.782 135.675,399.452 136.044,400.713 136.950 C 401.176 137.283,401.159 137.278,401.266 137.096 C 401.311 137.018,401.842 136.210,402.446 135.300 C 403.084 134.337,403.625 133.473,403.738 133.234 C 404.135 132.397,404.422 130.687,404.196 130.504 C 402.765 129.345,400.498 128.751,398.197 128.932 M387.083 129.572 C 386.764 134.255,389.113 136.487,394.035 136.179 L 394.543 136.147 394.543 132.627 L 394.543 129.108 390.829 129.108 L 387.115 129.108 387.083 129.572 M385.010 131.819 C 380.773 132.935,378.367 134.725,378.213 136.876 L 378.187 137.228 378.442 137.256 C 379.545 137.376,380.852 137.879,382.891 138.966 C 384.294 139.714,385.689 139.758,386.701 139.085 C 387.128 138.800,387.176 138.736,387.299 138.273 C 387.650 136.954,387.481 135.938,386.745 134.945 C 386.071 134.034,385.648 132.948,385.632 132.084 C 385.624 131.635,385.655 131.648,385.010 131.819 M406.923 131.734 C 406.422 133.120,405.372 134.896,404.532 135.781 C 404.365 135.957,404.229 136.111,404.229 136.123 C 404.229 136.136,404.535 136.368,404.910 136.641 C 414.483 143.598,431.891 153.155,456.885 165.173 C 457.868 165.646,458.678 166.033,458.684 166.033 C 458.690 166.033,458.707 165.843,458.720 165.611 C 458.817 163.985,459.936 162.609,461.637 162.021 C 461.841 161.951,461.837 161.946,461.162 161.422 C 452.930 155.028,435.838 145.585,409.417 132.835 C 406.785 131.565,406.956 131.641,406.923 131.734 M376.554 138.519 C 375.475 140.195,375.007 142.724,375.377 144.887 L 375.454 145.340 375.605 145.370 C 375.689 145.387,376.146 145.431,376.621 145.468 C 380.342 145.757,382.753 145.423,384.161 144.424 L 384.437 144.228 384.411 143.950 C 384.207 141.765,381.760 139.818,377.659 138.580 C 376.626 138.268,376.713 138.273,376.554 138.519 M158.855 186.028 C 159.841 186.055,161.671 186.197,162.258 186.292 C 162.394 186.314,162.383 186.326,161.458 187.164 C 143.436 203.496,133.410 215.687,131.128 224.045 L 130.984 224.573 130.717 223.894 C 126.274 212.577,127.987 203.358,136.151 194.659 C 141.544 188.913,149.466 185.722,157.666 185.994 C 157.880 186.001,158.415 186.017,158.855 186.028 M110.018 192.366 C 114.768 195.532,118.068 200.324,119.785 206.546 C 120.049 207.504,120.483 209.400,120.437 209.400 C 120.391 209.400,117.042 205.696,116.742 205.313 C 115.778 204.084,114.628 203.198,113.654 202.935 L 113.355 202.854 113.187 203.046 C 110.844 205.730,109.385 208.957,109.229 211.800 C 109.157 213.108,109.046 210.198,109.047 207.022 C 109.047 204.006,109.195 192.975,109.245 192.244 L 109.269 191.886 109.428 191.982 C 109.515 192.035,109.780 192.208,110.018 192.366 M168.216 202.310 C 170.200 202.417,173.988 202.815,173.988 202.917 C 173.988 202.933,173.750 203.088,173.459 203.262 C 154.369 214.622,141.855 228.139,136.697 242.969 L 136.428 243.742 136.253 243.250 C 132.614 232.977,133.418 223.953,138.675 216.080 C 144.518 207.329,152.605 202.847,163.546 202.295 C 164.233 202.260,167.489 202.271,168.216 202.310 M79.471 203.131 C 84.010 203.409,88.904 204.849,93.441 207.242 C 101.843 211.674,106.485 218.142,107.487 226.809 C 107.567 227.505,107.657 228.641,107.631 228.641 C 107.626 228.641,107.382 228.472,107.090 228.266 C 90.455 216.542,75.238 210.156,62.461 209.537 L 61.859 209.508 62.504 208.970 C 67.586 204.730,73.324 202.755,79.471 203.131 M114.558 209.084 C 117.007 210.914,121.223 217.019,126.162 225.888 L 126.303 226.141 126.094 226.028 C 125.440 225.672,121.989 222.359,118.299 218.545 L 117.379 217.594 117.187 217.810 C 115.428 219.786,113.948 223.401,112.568 229.088 L 112.318 230.119 112.169 229.888 C 110.436 227.205,110.730 220.603,113.028 210.567 C 113.194 209.842,113.371 209.069,113.422 208.850 L 113.513 208.452 113.841 208.623 C 114.021 208.717,114.344 208.924,114.558 209.084 M288.190 212.778 C 299.110 218.243,306.030 228.784,308.867 244.271 C 311.874 260.692,308.000 272.960,297.262 281.016 C 296.092 281.894,296.274 281.836,295.526 281.564 C 287.235 278.548,281.399 271.964,278.127 261.934 C 275.720 254.555,274.599 244.683,275.298 237.007 C 276.242 226.625,280.258 218.581,287.444 212.675 C 287.679 212.481,287.567 212.466,288.190 212.778 M446.602 214.721 C 461.325 215.313,472.786 220.189,482.381 229.944 C 492.775 240.512,497.571 254.003,496.711 270.257 C 495.601 291.257,482.928 308.227,463.875 314.228 C 461.456 314.990,457.402 315.955,456.114 316.075 L 455.962 316.089 455.891 315.591 C 455.011 309.507,457.710 305.804,464.242 304.134 C 472.068 302.132,475.253 300.058,474.575 297.406 C 473.989 295.114,470.025 291.254,462.837 285.975 C 453.621 279.207,448.000 274.247,447.463 272.408 C 447.395 272.174,447.389 272.176,447.200 272.473 C 446.040 274.299,445.567 278.309,445.817 284.201 C 445.978 287.981,445.793 291.415,445.332 293.216 L 445.233 293.605 445.201 292.978 C 445.036 289.707,444.017 284.129,441.994 275.430 C 441.791 274.559,441.615 273.809,441.601 273.764 C 441.543 273.573,440.648 273.795,439.791 274.214 C 437.476 275.344,433.318 279.056,428.916 283.920 C 424.031 289.319,419.551 291.923,415.942 291.460 L 415.564 291.411 415.740 291.125 C 417.748 287.844,421.417 283.946,425.783 280.457 C 426.139 280.171,426.616 279.790,426.842 279.610 C 430.233 276.900,434.604 272.849,436.666 270.505 C 437.388 269.685,438.473 268.292,438.473 268.186 C 438.473 268.171,429.455 268.160,418.432 268.160 C 407.410 268.160,398.392 268.169,398.392 268.180 C 398.392 268.230,398.622 269.715,398.718 270.290 C 400.066 278.293,402.715 284.923,406.500 289.770 C 406.971 290.373,406.969 290.349,406.552 290.538 C 405.747 290.904,404.235 290.640,402.024 289.748 C 399.030 288.541,395.583 287.456,394.468 287.369 L 394.154 287.345 393.683 285.913 C 386.536 264.226,390.029 245.491,403.970 230.737 C 414.676 219.407,429.029 214.015,446.602 214.721 M183.673 217.440 C 184.948 217.510,186.536 217.622,186.696 217.653 C 186.839 217.681,186.824 217.692,186.134 218.089 C 168.461 228.233,153.303 243.527,141.906 262.712 C 141.517 263.366,141.177 263.926,141.150 263.956 C 141.029 264.091,140.635 260.082,140.518 257.523 C 140.462 256.281,140.489 252.728,140.563 251.751 C 141.334 241.560,144.415 234.405,150.854 227.847 C 158.304 220.262,169.630 216.670,183.673 217.440 M78.887 220.690 C 85.285 221.078,93.175 223.857,99.051 227.791 C 105.746 232.274,109.564 238.064,110.622 245.339 C 110.776 246.394,110.777 246.385,110.526 246.543 C 109.374 247.274,107.470 246.816,105.046 245.225 C 104.613 244.941,98.375 240.122,97.869 239.681 C 97.751 239.578,97.627 239.493,97.594 239.493 C 97.562 239.493,97.163 239.281,96.707 239.023 C 86.953 233.476,74.051 229.365,60.122 227.365 C 59.043 227.210,59.075 227.270,59.780 226.710 C 65.433 222.224,71.688 220.253,78.887 220.690 M440.700 223.178 C 438.911 223.320,437.568 223.543,435.684 224.010 C 430.470 225.303,422.271 228.580,414.487 232.483 C 413.866 232.795,413.891 232.728,414.223 233.184 C 416.711 236.592,425.300 245.107,438.992 257.737 C 441.201 259.775,441.307 259.880,441.350 260.067 C 441.403 260.297,441.478 260.342,441.549 260.185 C 441.595 260.085,441.587 260.059,441.481 259.948 C 441.193 259.647,441.116 252.375,441.282 240.963 C 441.373 234.663,441.521 226.008,441.568 224.220 L 441.596 223.149 441.234 223.157 C 441.035 223.161,440.795 223.170,440.700 223.178 M445.823 223.287 C 445.824 223.490,446.101 231.923,446.256 236.423 C 446.727 250.106,447.091 258.268,447.295 259.685 C 447.317 259.840,447.335 259.991,447.336 260.020 C 447.338 260.165,447.424 260.041,447.531 259.739 C 448.598 256.727,453.513 252.303,462.640 246.139 C 471.582 240.099,475.165 236.398,474.561 233.824 C 473.694 230.133,464.532 226.642,447.228 223.410 C 446.586 223.290,446.008 223.181,445.942 223.167 C 445.831 223.144,445.823 223.152,445.823 223.287 M118.666 225.487 C 125.880 231.951,130.345 239.180,131.571 246.380 C 131.739 247.366,131.738 247.369,131.494 246.909 C 130.862 245.719,129.408 244.070,127.986 242.929 C 127.691 242.692,126.222 241.476,124.722 240.227 C 123.222 238.977,121.972 237.941,121.945 237.924 C 121.889 237.889,120.814 239.479,120.169 240.553 C 117.797 244.494,116.666 247.762,116.582 250.916 L 116.557 251.853 116.336 251.612 C 112.093 246.976,112.477 238.178,117.476 225.491 L 117.788 224.699 117.903 224.802 C 117.966 224.859,118.309 225.167,118.666 225.487 M195.694 236.683 C 197.513 236.723,199.256 236.794,199.534 236.838 C 199.670 236.860,199.613 236.901,198.540 237.564 C 171.621 254.188,154.821 272.832,148.438 293.165 L 148.101 294.238 148.032 293.792 C 145.829 279.579,147.438 266.917,152.627 257.631 C 160.095 244.267,173.654 237.100,192.256 236.686 C 193.041 236.668,193.722 236.651,193.769 236.648 C 193.817 236.644,194.683 236.660,195.694 236.683 M469.928 244.342 C 466.431 247.766,461.745 252.298,459.140 254.775 C 454.531 259.159,453.226 260.440,452.134 261.653 C 451.321 262.555,450.104 264.030,450.104 264.112 C 450.104 264.127,458.861 264.139,469.565 264.139 L 489.026 264.139 489.001 263.652 C 488.987 263.385,488.965 262.884,488.951 262.539 C 488.549 252.343,485.244 244.661,479.365 240.258 C 478.347 239.496,476.341 238.267,476.145 238.286 C 476.126 238.288,473.329 241.013,469.928 244.342 M408.493 238.663 C 408.484 238.680,407.703 239.956,406.759 241.500 C 404.955 244.450,401.656 250.129,401.045 251.336 C 398.898 255.578,398.356 259.980,399.498 263.906 L 399.565 264.139 403.594 264.139 C 409.640 264.140,414.756 264.270,420.075 264.559 C 423.890 264.766,427.651 264.641,430.857 264.202 C 433.272 263.871,437.311 263.129,437.304 263.019 C 437.303 263.005,437.035 262.814,436.709 262.595 C 433.853 260.676,429.711 256.673,424.392 250.692 C 423.613 249.815,423.096 249.301,421.610 247.923 C 417.623 244.224,414.003 241.479,410.810 239.733 C 409.910 239.241,408.529 238.603,408.493 238.663 M76.920 238.932 C 83.125 239.203,89.710 240.932,95.750 243.879 C 105.490 248.630,111.267 255.610,113.107 264.852 C 113.297 265.809,113.480 266.982,113.445 267.018 C 113.281 267.181,106.156 263.801,93.545 257.577 C 91.761 256.697,89.825 255.758,89.242 255.491 C 76.423 249.606,64.884 247.109,53.813 247.824 C 53.302 247.857,53.294 247.892,53.935 247.305 C 60.365 241.434,68.271 238.554,76.920 238.932 M199.020 244.249 C 201.220 254.645,202.197 270.624,201.749 288.892 C 201.692 291.220,201.465 303.912,201.293 314.424 C 201.257 316.648,201.208 319.578,201.185 320.936 C 201.008 331.551,201.035 337.947,201.271 341.228 C 201.294 341.548,201.306 341.816,201.297 341.825 C 201.289 341.834,200.593 341.105,199.752 340.207 C 192.592 332.555,188.528 328.324,183.371 323.154 L 180.366 320.141 179.501 319.496 C 170.469 312.750,160.376 308.841,149.862 308.015 L 149.710 308.003 149.722 307.744 C 149.728 307.601,149.811 306.945,149.906 306.286 C 153.249 283.119,168.831 262.309,196.882 243.550 L 198.611 242.394 198.708 242.814 C 198.761 243.045,198.901 243.691,199.020 244.249 M123.270 245.667 C 131.314 250.500,136.805 259.227,139.589 271.600 C 142.108 282.801,141.675 293.633,138.289 304.080 C 138.133 304.562,137.988 304.967,137.967 304.980 C 137.892 305.026,136.114 303.810,135.096 303.016 C 127.621 297.189,122.623 288.526,119.534 276.039 C 116.800 264.984,117.589 254.914,121.948 245.230 L 122.062 244.978 122.396 245.160 C 122.580 245.261,122.973 245.489,123.270 245.667 M257.826 254.801 C 262.530 255.047,267.306 255.953,271.208 257.341 L 271.668 257.504 271.897 258.108 C 273.680 262.808,279.702 271.194,290.168 283.552 C 291.269 284.853,293.118 287.016,293.334 287.256 L 293.417 287.349 293.017 287.442 C 280.053 290.486,268.426 289.761,258.734 285.306 C 247.361 280.078,240.487 272.106,237.833 261.069 C 237.561 259.934,237.158 257.855,237.158 257.580 C 237.158 257.372,241.748 256.247,244.876 255.689 C 247.589 255.205,249.879 254.951,253.027 254.785 C 253.672 254.751,257.085 254.762,257.826 254.801 M76.141 260.508 C 83.409 260.885,91.116 263.239,98.755 267.415 C 110.333 273.745,118.025 282.568,121.907 293.973 C 122.423 295.489,123.235 298.375,123.127 298.310 C 123.099 298.294,122.735 298.025,122.319 297.713 C 97.806 279.334,74.659 270.149,51.591 269.647 L 50.238 269.617 50.399 269.483 C 57.949 263.184,66.988 260.033,76.141 260.508 M461.302 268.056 C 459.305 268.163,458.452 268.239,456.750 268.465 C 453.804 268.857,449.932 269.568,450.107 269.685 C 450.117 269.692,450.359 269.851,450.644 270.038 C 453.284 271.772,457.695 275.849,463.093 281.544 C 468.959 287.734,474.209 292.052,478.468 294.189 L 478.894 294.403 479.289 293.706 C 485.553 282.662,488.857 274.277,489.005 269.052 L 489.031 268.150 488.732 268.179 C 487.801 268.270,486.705 268.297,483.136 268.319 C 478.405 268.348,470.135 268.235,467.983 268.112 C 467.239 268.070,461.890 268.025,461.302 268.056 M357.591 279.356 C 360.824 279.856,363.370 281.557,365.098 284.370 C 365.331 284.749,365.384 284.809,365.462 284.788 C 370.625 283.379,377.460 284.061,384.742 286.713 C 385.189 286.876,385.773 287.067,386.039 287.139 C 388.073 287.686,390.670 288.732,394.949 290.728 C 397.594 291.962,398.565 292.359,401.397 293.364 C 402.975 293.924,404.138 294.356,404.077 294.359 C 404.054 294.361,403.664 294.390,403.213 294.425 C 396.223 294.964,383.218 295.628,375.670 295.831 C 370.371 295.974,358.781 295.998,353.446 295.878 C 350.262 295.806,340.757 295.666,332.670 295.572 C 325.495 295.488,316.491 295.444,306.393 295.443 C 300.822 295.443,296.265 295.428,296.265 295.410 C 296.266 295.343,296.669 294.629,296.897 294.290 C 298.985 291.184,303.376 289.215,309.711 288.546 C 315.041 287.983,317.850 287.408,320.607 286.313 C 322.386 285.607,324.120 284.458,324.821 283.520 L 324.949 283.349 325.448 283.598 C 329.573 285.655,336.492 284.920,345.901 281.426 C 349.107 280.235,350.720 279.770,352.776 279.446 C 354.307 279.204,356.365 279.166,357.591 279.356 M206.657 279.359 C 225.138 281.062,235.687 290.083,238.409 306.512 C 238.967 309.882,239.847 318.546,240.269 324.823 C 242.171 353.096,240.446 382.098,234.951 414.231 C 234.604 416.259,234.054 419.373,234.014 419.535 L 233.987 419.643 233.951 419.513 C 233.839 419.106,233.500 417.493,233.311 416.465 C 232.732 413.314,232.559 412.621,230.911 406.866 C 229.688 402.596,229.663 402.496,229.503 401.097 C 228.942 396.208,229.850 391.543,232.143 387.539 C 232.498 386.918,232.505 386.859,232.277 386.395 C 231.760 385.346,230.300 384.585,227.776 384.050 C 227.190 383.926,225.053 383.936,224.335 384.067 C 223.153 384.282,222.176 384.716,221.445 385.351 L 221.275 385.498 221.477 386.097 C 222.760 389.905,222.184 394.658,219.691 400.830 C 217.043 407.388,214.043 410.588,210.549 410.584 C 209.860 410.583,209.862 410.584,209.728 410.274 C 208.482 407.403,210.316 401.763,215.120 393.682 L 215.594 392.886 215.523 392.661 C 214.841 390.496,212.422 388.473,210.416 388.390 C 209.494 388.351,208.734 388.202,207.951 387.904 C 207.581 387.764,207.096 387.672,206.712 387.670 C 206.388 387.668,205.972 387.554,205.772 387.412 L 205.638 387.317 205.638 333.294 C 205.638 303.582,205.654 279.272,205.673 279.272 C 205.692 279.272,206.135 279.311,206.657 279.359 M412.617 292.960 C 413.155 293.054,413.713 293.237,414.195 293.478 C 414.863 293.813,414.864 293.820,414.270 293.829 C 413.044 293.849,408.598 294.833,407.072 295.423 C 406.974 295.460,406.971 295.287,407.061 294.859 C 407.323 293.616,408.259 293.044,410.217 292.933 C 410.645 292.908,411.015 292.879,411.039 292.869 C 411.127 292.828,412.221 292.891,412.617 292.960 M452.828 298.489 C 452.828 298.501,452.887 298.788,452.960 299.127 C 454.714 307.339,453.579 314.468,449.615 320.148 L 449.287 320.619 448.841 320.855 C 443.458 323.706,436.406 327.789,426.777 333.629 C 425.659 334.307,424.705 334.883,424.657 334.908 C 424.542 334.969,422.568 335.640,420.486 336.326 C 413.701 338.561,408.360 340.910,405.045 343.117 C 396.711 348.664,389.176 359.424,383.033 374.546 C 376.287 391.152,369.456 401.606,361.733 407.141 L 361.077 407.611 361.077 452.637 L 361.077 497.664 361.404 498.147 C 364.652 502.953,372.522 506.832,384.685 509.622 C 388.335 510.459,394.178 512.189,397.938 513.546 C 403.952 515.716,408.312 518.044,410.648 520.333 L 411.212 520.885 410.952 521.125 C 408.732 523.176,402.717 524.374,392.619 524.774 C 388.295 524.946,383.110 524.923,364.082 524.645 C 326.503 524.098,309.732 523.508,300.912 522.426 L 300.134 522.330 300.148 522.202 C 300.194 521.761,300.642 520.749,301.095 520.062 C 303.713 516.090,310.643 512.956,322.510 510.377 C 335.743 507.501,343.694 504.432,347.363 500.785 L 347.900 500.251 347.873 499.877 C 347.365 492.914,348.231 475.595,350.183 453.692 C 351.960 433.761,351.840 420.517,349.791 410.266 C 348.694 404.781,346.025 400.731,340.493 396.161 C 338.144 394.220,335.655 391.907,332.763 388.980 C 330.591 386.780,330.524 386.704,330.027 385.818 C 328.763 383.567,327.903 381.240,324.688 371.368 C 324.057 369.430,323.360 367.290,323.138 366.612 C 320.518 358.581,316.994 352.327,312.770 348.210 L 312.019 347.479 311.373 347.181 C 308.378 345.795,305.516 344.578,300.999 342.767 C 289.784 338.270,274.321 331.541,271.186 329.794 C 260.022 323.570,255.289 313.905,256.725 300.264 C 256.796 299.594,256.907 298.717,256.941 298.567 L 256.963 298.469 354.895 298.469 C 408.758 298.469,452.828 298.478,452.828 298.489 M145.173 313.544 C 145.307 314.797,144.961 316.322,144.210 317.788 C 143.586 319.004,143.439 319.605,143.474 320.780 C 143.486 321.172,143.515 321.542,143.539 321.602 C 143.576 321.694,144.159 321.966,147.468 323.435 C 151.374 325.169,152.391 325.650,153.146 326.120 C 154.571 327.006,155.707 328.177,156.274 329.346 C 156.531 329.873,156.489 329.857,157.007 329.640 C 158.541 328.998,160.060 327.133,161.672 323.915 C 162.978 321.307,164.533 319.807,166.665 319.100 C 167.450 318.840,168.883 318.652,169.540 318.723 L 169.827 318.754 169.781 318.934 C 169.521 319.959,167.727 322.425,165.150 325.301 C 162.920 327.789,161.440 330.736,160.915 333.738 C 160.839 334.170,163.379 335.443,168.000 337.288 C 171.754 338.788,173.819 340.098,175.183 341.848 C 175.234 341.913,175.295 341.966,175.317 341.966 C 175.474 341.966,176.929 339.887,178.614 337.254 C 179.002 336.647,179.497 335.879,179.716 335.546 C 181.155 333.348,182.864 331.992,184.924 331.413 C 185.172 331.344,185.378 331.292,185.383 331.298 C 185.536 331.484,185.662 332.034,185.662 332.516 C 185.662 334.055,184.562 336.142,182.498 338.516 C 179.855 341.555,178.398 344.164,178.398 345.856 C 178.398 346.552,180.683 347.860,184.646 349.431 C 188.343 350.897,190.400 352.339,191.127 353.973 C 191.226 354.197,191.381 354.227,192.228 354.190 C 194.138 354.106,195.243 353.008,196.927 349.523 L 197.151 349.059 197.354 349.217 C 198.503 350.112,198.867 352.217,198.372 355.089 C 198.302 355.493,198.193 356.106,198.129 356.451 C 197.965 357.339,197.952 359.158,198.105 359.853 C 198.471 361.516,199.277 362.622,200.729 363.451 L 201.116 363.672 200.167 363.672 C 193.397 363.673,189.316 366.579,187.678 372.566 C 187.313 373.899,186.960 376.202,186.960 377.249 L 186.960 377.495 187.338 377.860 C 188.686 379.158,191.660 380.913,194.721 382.218 C 197.622 383.454,199.682 384.583,200.922 385.615 L 201.314 385.941 201.314 386.643 C 201.312 394.582,198.809 402.321,194.264 408.446 C 194.088 408.683,193.903 408.977,193.852 409.100 C 193.504 409.947,192.109 411.049,189.813 412.294 C 189.481 412.474,189.156 412.690,188.970 412.855 C 188.480 413.289,188.169 413.487,188.171 413.363 C 188.171 413.345,188.519 413.004,188.944 412.606 L 189.717 411.881 189.659 411.577 C 189.105 408.671,187.278 406.329,184.279 404.680 C 184.029 404.542,183.309 404.116,182.679 403.732 C 178.550 401.216,175.957 399.767,175.465 399.701 C 175.251 399.673,175.334 399.606,173.942 400.928 C 168.707 405.903,165.855 410.252,165.190 414.272 C 165.059 415.065,167.683 416.702,171.524 418.223 C 175.233 419.693,176.839 421.383,176.842 423.822 L 176.842 423.937 176.377 423.969 C 174.568 424.094,172.844 423.487,170.845 422.019 C 169.643 421.136,168.323 420.429,167.094 420.010 L 166.750 419.892 166.445 419.978 C 163.564 420.792,160.028 424.564,155.938 431.185 L 155.434 432.002 155.556 432.103 C 156.102 432.562,157.775 433.709,159.167 434.581 L 159.674 434.899 159.319 434.991 C 157.940 435.348,155.621 436.660,153.018 438.556 C 149.947 440.793,146.354 442.907,144.046 443.835 C 143.093 444.219,142.390 444.456,142.490 444.361 C 142.537 444.316,142.868 444.016,143.225 443.694 C 152.333 435.488,150.247 429.316,137.087 425.529 L 136.268 425.294 135.852 425.612 C 130.740 429.531,127.941 433.852,127.509 438.492 C 127.456 439.064,127.428 439.021,128.160 439.507 C 129.047 440.095,131.080 441.076,133.410 442.040 C 136.636 443.375,138.314 444.786,139.023 446.759 L 139.134 447.069 138.786 447.099 C 137.855 447.182,136.331 446.924,134.776 446.420 C 133.181 445.904,130.892 444.889,129.846 444.234 C 127.289 442.633,124.599 442.623,122.081 444.203 C 121.874 444.333,121.702 444.440,121.698 444.440 C 121.695 444.439,121.691 443.783,121.690 442.980 C 121.684 439.389,121.001 437.217,119.232 435.161 L 119.080 434.983 119.651 434.958 C 122.234 434.843,124.785 433.185,127.743 429.696 C 131.963 424.720,133.880 422.259,133.537 422.259 C 133.411 422.259,133.302 422.348,133.302 422.450 C 133.302 423.294,129.353 419.994,121.523 412.606 C 120.901 412.019,120.493 411.666,120.439 411.666 C 120.391 411.666,120.148 411.713,119.898 411.769 C 116.808 412.470,113.742 415.490,111.013 420.521 C 110.836 420.846,110.676 421.140,110.656 421.173 C 110.628 421.221,110.549 421.197,110.261 421.053 C 107.619 419.735,107.512 417.698,109.936 414.865 C 110.190 414.568,110.779 413.877,111.246 413.330 C 112.373 412.007,113.446 410.782,114.307 409.836 C 114.920 409.161,115.117 408.915,114.974 409.003 C 114.953 409.016,114.845 408.866,114.734 408.669 C 113.473 406.421,109.784 403.751,103.565 400.587 C 102.774 400.184,102.127 399.845,102.127 399.833 C 102.127 399.564,102.786 398.335,103.150 397.923 C 105.091 395.731,109.056 397.653,114.319 403.335 C 114.640 403.681,114.908 403.958,114.915 403.951 C 114.922 403.944,114.967 403.795,115.016 403.621 C 115.447 402.066,117.396 400.079,120.806 397.722 C 123.872 395.602,125.902 393.463,126.281 391.949 C 126.389 391.519,126.317 390.448,126.120 389.549 C 125.219 385.453,121.916 383.049,116.177 382.312 C 107.389 381.183,102.722 384.524,102.233 392.293 L 102.202 392.787 102.097 392.660 C 100.484 390.691,100.180 388.530,101.224 386.449 C 102.540 383.826,104.995 381.490,107.301 380.667 L 107.696 380.526 107.726 380.065 C 107.872 377.828,106.973 375.903,104.938 374.092 C 103.444 372.763,102.681 371.549,102.344 369.963 C 102.243 369.486,102.174 368.023,102.249 367.916 C 102.317 367.817,107.171 371.349,107.873 372.008 L 108.095 372.216 108.349 372.081 C 108.961 371.754,109.777 371.040,110.298 370.378 C 110.743 369.811,113.228 366.112,113.771 365.207 C 115.118 362.963,116.385 361.202,117.457 360.083 C 117.859 359.664,117.864 359.651,117.894 359.078 C 118.016 356.726,116.197 354.950,112.526 353.836 C 110.008 353.072,107.873 351.552,107.185 350.035 C 106.886 349.374,106.710 347.787,106.914 347.583 C 107.203 347.294,112.303 349.967,118.098 353.444 C 118.761 353.841,119.317 354.150,119.335 354.131 C 119.353 354.111,119.889 353.384,120.527 352.516 C 125.092 346.305,128.170 342.472,128.914 342.071 C 129.095 341.974,129.099 341.929,128.972 341.391 C 128.446 339.150,126.542 337.348,122.611 335.369 C 118.414 333.257,115.899 331.546,114.931 330.144 C 114.665 329.760,114.645 329.811,115.169 329.557 C 116.705 328.813,118.548 328.892,120.594 329.792 C 121.466 330.175,121.953 330.487,123.766 331.825 C 125.383 333.020,126.843 333.995,128.900 335.257 L 129.060 335.356 129.349 335.061 C 130.530 333.857,132.998 330.668,134.057 328.977 C 135.540 326.611,137.155 325.112,139.016 324.373 C 139.294 324.262,139.310 324.230,139.311 323.800 C 139.314 322.329,138.271 320.853,136.186 319.378 C 134.848 318.432,134.345 317.911,134.079 317.200 C 133.794 316.438,134.051 315.576,134.770 314.878 L 134.949 314.705 135.130 314.808 C 136.747 315.718,138.212 316.274,139.101 316.315 C 139.734 316.344,139.858 316.305,140.398 315.907 C 141.737 314.918,142.494 314.463,143.916 313.790 C 145.244 313.162,145.134 313.184,145.173 313.544 M337.751 314.555 C 325.611 314.714,306.434 315.357,293.283 316.046 C 292.607 316.081,292.014 316.112,291.965 316.113 C 291.778 316.119,292.040 316.184,292.373 316.214 C 292.551 316.231,293.174 316.312,293.756 316.394 C 309.146 318.578,321.667 327.495,331.576 343.328 C 331.933 343.899,332.400 344.639,332.613 344.971 C 334.642 348.139,335.709 350.277,339.081 357.943 C 340.212 360.511,341.546 363.540,342.046 364.673 C 343.197 367.279,346.261 374.744,349.569 382.999 C 350.560 385.472,351.175 386.975,351.583 387.921 C 351.668 388.119,351.720 388.275,351.699 388.267 C 351.421 388.165,349.068 385.881,348.128 384.801 C 343.415 379.388,338.807 371.299,333.764 359.586 C 327.812 345.762,321.014 336.570,313.343 331.969 C 309.781 329.833,303.685 327.355,294.708 324.393 C 292.373 323.623,292.093 323.538,290.001 322.963 C 282.195 320.821,275.167 318.082,269.808 315.095 L 268.970 314.628 268.360 314.792 C 267.164 315.111,266.355 315.451,266.040 315.766 C 265.758 316.047,265.784 316.115,266.333 316.551 C 269.125 318.769,273.474 321.331,281.326 325.383 C 286.581 328.095,299.110 334.238,303.117 336.067 C 313.947 341.012,322.499 347.977,327.737 356.118 C 329.189 358.375,329.892 359.701,331.570 363.347 C 339.986 381.643,344.048 391.138,343.404 391.009 C 343.238 390.975,343.431 391.116,344.118 391.526 C 353.653 397.220,361.249 396.181,367.255 388.361 C 367.702 387.778,367.829 387.581,367.671 387.712 C 367.242 388.068,370.720 380.635,378.046 365.535 C 378.824 363.932,379.596 362.327,379.762 361.968 C 383.628 353.613,390.713 346.138,400.553 340.033 C 403.406 338.263,405.029 337.386,410.174 334.833 C 428.025 325.975,439.626 319.157,444.007 314.947 L 444.332 314.636 443.856 314.660 C 435.508 315.092,411.328 315.115,375.043 314.725 C 372.725 314.700,368.716 314.650,366.136 314.613 C 360.812 314.537,342.048 314.498,337.751 314.555 M144.565 326.878 C 137.524 327.249,133.736 331.536,133.716 339.153 L 133.712 340.513 134.318 340.790 C 139.401 343.120,144.357 346.033,147.521 348.554 C 147.809 348.783,148.060 348.971,148.078 348.971 C 148.096 348.971,148.176 348.698,148.255 348.364 C 148.827 345.943,150.091 343.523,151.913 341.361 C 154.196 338.653,155.164 337.289,155.979 335.632 C 156.284 335.012,156.650 334.053,156.650 333.873 C 156.650 333.826,156.475 333.531,156.262 333.218 C 153.818 329.628,150.744 327.520,147.174 326.984 C 146.799 326.927,145.353 326.822,145.214 326.841 C 145.190 326.844,144.898 326.861,144.565 326.878 M161.707 339.350 C 156.879 339.936,153.518 342.463,151.924 346.707 C 151.299 348.372,150.813 351.020,150.813 352.757 L 150.813 353.067 151.404 353.315 C 151.729 353.452,152.434 353.735,152.971 353.943 C 154.618 354.584,155.922 355.216,157.709 356.241 C 160.787 358.005,164.268 359.351,166.579 359.669 L 166.757 359.693 166.787 359.315 C 166.879 358.151,167.292 357.032,168.042 355.911 C 168.654 354.997,169.059 354.553,170.884 352.797 C 172.920 350.838,174.008 348.727,174.145 346.468 L 174.173 346.002 173.815 345.508 C 170.456 340.883,166.338 338.789,161.707 339.350 M134.945 345.946 C 133.389 346.037,131.122 346.558,129.573 347.181 C 125.312 348.891,122.579 352.718,121.693 358.214 C 121.663 358.399,121.663 358.399,121.505 358.374 L 121.346 358.348 121.475 358.457 C 121.556 358.526,121.636 358.558,121.691 358.544 C 121.948 358.480,127.063 361.023,135.368 365.342 C 136.802 366.088,137.981 366.698,137.988 366.698 C 137.995 366.698,138.014 366.479,138.029 366.211 C 138.171 363.724,139.424 361.482,141.859 359.360 C 144.308 357.225,145.874 355.200,146.447 353.426 L 146.579 353.016 146.083 352.280 C 143.057 347.793,139.353 345.687,134.945 345.946 M176.741 350.214 C 175.818 351.687,172.647 356.993,171.320 359.283 C 169.421 362.561,168.281 364.768,168.281 365.166 C 168.281 365.205,169.305 365.740,171.059 366.617 C 174.345 368.260,177.356 369.794,180.301 371.325 C 183.001 372.730,184.245 373.362,184.265 373.342 C 184.274 373.333,184.256 373.221,184.226 373.093 C 184.143 372.736,184.157 371.558,184.249 371.097 C 184.591 369.393,185.543 367.855,187.523 365.812 C 190.031 363.222,192.460 359.959,192.763 358.770 C 192.829 358.513,192.944 358.614,191.413 357.581 C 185.669 353.707,181.002 351.240,177.489 350.223 C 176.779 350.017,176.864 350.018,176.741 350.214 M151.094 357.991 C 149.522 358.151,148.729 358.335,147.473 358.834 C 142.780 360.698,140.572 364.927,140.998 371.238 C 141.065 372.243,141.061 372.225,141.249 372.256 C 143.997 372.702,148.747 374.866,154.493 378.291 C 155.007 378.598,155.445 378.848,155.468 378.848 C 155.490 378.848,155.554 378.658,155.610 378.427 C 156.193 375.986,157.592 373.682,159.901 371.359 C 162.040 369.208,163.365 367.332,163.908 365.687 C 164.085 365.153,164.104 365.217,163.485 364.291 C 161.068 360.674,158.110 358.669,154.337 358.091 C 153.754 358.002,151.634 357.937,151.094 357.991 M123.033 363.892 C 120.093 364.133,117.223 365.593,115.391 367.779 C 113.587 369.932,112.504 373.137,112.345 376.794 L 112.319 377.400 112.605 377.454 C 113.890 377.696,116.362 378.863,119.304 380.614 C 122.173 382.323,125.292 383.729,127.516 384.317 C 127.894 384.417,127.908 384.408,128.002 384.009 C 128.527 381.770,129.708 379.904,132.199 377.378 C 134.691 374.851,135.840 373.107,136.393 371.014 L 136.469 370.724 136.150 370.322 C 132.445 365.655,128.015 363.484,123.033 363.892 M171.589 370.054 C 164.774 370.583,161.131 372.434,159.261 376.319 C 158.298 378.321,157.858 381.438,158.157 384.141 L 158.185 384.396 158.849 384.538 C 161.698 385.149,164.699 386.396,166.854 387.866 C 169.648 389.771,172.082 390.999,173.733 391.336 C 174.217 391.435,174.175 391.459,174.120 391.122 C 173.682 388.422,175.231 385.716,178.716 383.093 C 181.964 380.649,183.102 378.856,182.617 376.952 C 181.586 372.914,179.021 370.685,174.767 370.133 C 174.250 370.066,172.117 370.013,171.589 370.054 M140.566 376.690 C 135.104 377.231,131.256 381.158,129.523 387.959 C 129.325 388.732,129.005 390.262,129.035 390.291 C 129.043 390.299,129.292 390.373,129.587 390.454 C 131.592 391.008,134.324 392.228,137.215 393.859 C 140.559 395.747,142.594 396.563,144.892 396.941 C 144.997 396.958,145.006 396.944,145.057 396.692 C 145.374 395.133,146.630 393.178,148.912 390.696 C 151.195 388.211,152.912 385.519,153.508 383.489 L 153.573 383.266 153.270 382.905 C 149.458 378.380,145.087 376.241,140.566 376.690 M186.916 382.959 C 180.652 383.466,176.458 388.024,175.420 395.451 C 175.260 396.597,175.261 396.568,175.378 396.595 C 175.434 396.607,175.694 396.665,175.956 396.723 C 178.020 397.181,180.500 398.196,182.830 399.538 C 184.292 400.380,188.008 402.363,188.821 402.736 C 189.563 403.076,190.992 403.580,191.214 403.580 C 191.256 403.580,191.277 403.436,191.297 403.029 C 191.415 400.598,192.674 398.384,195.196 396.172 C 197.449 394.197,198.864 392.429,199.532 390.754 C 199.887 389.863,199.912 389.982,199.188 389.117 C 195.484 384.693,191.318 382.602,186.916 382.959 M158.639 389.272 C 152.206 389.904,148.692 393.781,148.134 400.864 C 148.071 401.661,148.028 403.431,148.064 403.721 L 148.095 403.969 148.269 403.969 C 149.798 403.969,154.263 405.987,161.116 409.774 C 161.848 410.178,162.460 410.497,162.475 410.481 C 162.491 410.465,162.568 410.219,162.646 409.935 C 163.256 407.702,164.555 405.726,166.907 403.453 C 168.966 401.463,170.299 399.473,170.897 397.500 C 171.085 396.880,171.098 396.982,170.765 396.400 C 167.810 391.242,163.626 388.782,158.639 389.272 M132.091 394.874 C 122.436 395.529,118.244 399.882,118.875 408.600 L 118.911 409.102 119.502 409.133 C 122.466 409.285,125.450 410.364,128.176 412.267 C 130.689 414.023,132.973 415.191,134.826 415.670 C 135.335 415.801,135.303 415.820,135.246 415.423 C 134.845 412.645,136.193 410.252,139.224 408.360 C 141.567 406.898,143.321 405.026,143.749 403.533 C 144.137 402.183,143.188 399.578,141.695 397.894 C 139.748 395.699,136.234 394.593,132.091 394.874 M148.175 407.232 C 146.452 407.433,145.303 407.782,143.675 408.598 C 139.172 410.853,136.781 414.879,136.434 420.789 L 136.404 421.287 144.363 425.340 C 148.741 427.569,152.340 429.393,152.362 429.393 C 152.384 429.393,152.426 429.301,152.457 429.188 C 152.954 427.334,155.038 424.166,157.345 421.756 C 159.785 419.209,160.930 416.905,160.930 414.548 L 160.930 414.207 160.642 413.790 C 157.279 408.930,152.984 406.670,148.175 407.232 M224.594 407.671 C 225.423 407.885,225.797 408.328,225.848 409.158 C 225.862 409.384,225.901 410.016,225.936 410.563 C 228.387 449.098,210.536 479.580,172.669 501.521 C 136.095 522.712,96.039 528.720,52.520 519.540 C 39.151 516.720,29.338 512.026,21.338 504.626 C 20.103 503.484,18.008 501.289,17.307 500.404 L 17.169 500.229 17.480 500.245 C 21.878 500.467,33.788 500.419,40.924 500.151 C 100.380 497.917,149.652 479.765,188.257 445.871 C 200.476 435.142,212.026 422.417,221.913 408.790 C 222.361 408.172,222.735 407.659,222.742 407.650 C 222.829 407.550,224.184 407.565,224.594 407.671 M204.404 410.747 C 201.095 429.991,181.484 449.415,145.711 468.879 C 124.076 480.650,101.987 487.492,79.644 489.341 C 43.151 492.360,19.469 483.120,7.808 461.312 C 7.415 460.576,6.486 458.702,6.344 458.359 L 6.280 458.204 7.085 458.435 C 46.302 469.719,86.246 469.385,125.108 457.447 C 156.887 447.685,182.574 432.059,201.313 411.090 L 201.765 410.585 203.098 410.585 L 204.431 410.585 204.404 410.747 M80.911 415.171 C 81.369 415.240,81.970 415.398,82.605 415.617 C 83.155 415.806,83.422 415.914,84.703 416.463 C 87.268 417.565,90.303 417.919,91.902 417.303 C 91.949 417.285,91.851 417.418,91.684 417.600 C 90.282 419.124,89.797 422.755,90.496 426.494 C 90.544 426.752,90.542 426.753,90.250 426.529 C 88.037 424.832,85.335 423.696,82.822 423.405 C 81.389 423.239,78.832 423.431,77.933 423.773 C 77.875 423.795,77.828 423.805,77.828 423.796 C 77.828 423.689,79.493 421.459,80.184 420.640 C 81.384 419.220,81.527 418.962,81.497 418.285 C 81.459 417.458,80.714 416.649,79.352 415.955 C 78.891 415.720,78.907 415.746,79.105 415.542 C 79.466 415.171,80.076 415.046,80.911 415.171 M208.422 483.764 C 209.386 497.365,214.844 506.725,225.203 512.540 C 229.489 514.946,235.411 516.913,241.158 517.841 L 241.634 517.918 241.374 517.972 C 228.900 520.593,217.529 516.280,210.313 506.192 C 204.472 498.026,203.699 488.996,208.007 479.260 L 208.297 478.604 208.325 480.687 C 208.340 481.872,208.382 483.199,208.422 483.764 M351.805 510.727 C 338.894 511.081,326.739 514.176,315.208 520.045 C 313.405 520.962,313.480 520.899,314.230 520.867 C 319.483 520.640,348.767 520.709,359.586 520.974 C 364.871 521.103,372.945 521.015,378.005 520.774 C 384.103 520.484,396.703 519.560,396.871 519.392 C 396.893 519.370,396.949 519.392,395.668 518.908 C 380.286 513.085,365.608 510.348,351.805 510.727 " stroke="none" fill="#000000" fill-rule="evenodd"></path></g></svg>